<?xml version="1.0" encoding="UTF-8"?>
<svg version="1.1" xmlns="http://www.w3.org/2000/svg" width="380" height="380">
<path d="M0 0 C0.77675583 -0.00705963 1.55351166 -0.01411926 2.35380554 -0.02139282 C34.86826896 -0.24987492 34.86826896 -0.24987492 49.51171875 3.203125 C50.37539062 3.40180176 51.2390625 3.60047852 52.12890625 3.80517578 C102.03486784 15.60129099 145.53728574 45.9304216 172.91113281 89.42675781 C189.15828027 116.24232201 200.52206462 148.09614185 200.71484375 179.69140625 C200.72190338 180.46816208 200.72896301 181.24491791 200.73623657 182.04521179 C200.96471867 214.55967521 200.96471867 214.55967521 197.51171875 229.203125 C197.21370361 230.49863281 197.21370361 230.49863281 196.90966797 231.8203125 C185.11355276 281.72627409 154.78442215 325.22869199 111.28808594 352.60253906 C84.47252174 368.84968652 52.6187019 380.21347087 21.0234375 380.40625 C20.24668167 380.41330963 19.46992584 380.42036926 18.66963196 380.42764282 C-13.84483146 380.65612492 -13.84483146 380.65612492 -28.48828125 377.203125 C-29.78378906 376.90510986 -29.78378906 376.90510986 -31.10546875 376.60107422 C-81.01143034 364.80495901 -124.51384824 334.4758284 -151.88769531 290.97949219 C-168.13484277 264.16392799 -179.49862712 232.31010815 -179.69140625 200.71484375 C-179.69846588 199.93808792 -179.70552551 199.16133209 -179.71279907 198.36103821 C-179.94128117 165.84657479 -179.94128117 165.84657479 -176.48828125 151.203125 C-176.19026611 149.90761719 -176.19026611 149.90761719 -175.88623047 148.5859375 C-164.09011526 98.67997591 -133.76098465 55.17755801 -90.26464844 27.80371094 C-63.44908424 11.55656348 -31.5952644 0.19277913 0 0 Z " fill="#1552CD" transform="translate(179.48828125,-0.203125)"/>
<path d="M0 0 C0.01030746 0.79957626 0.02061493 1.59915253 0.03123474 2.42295837 C0.12904082 9.94267296 0.23153065 17.46230193 0.33933926 24.98187923 C0.39460355 28.8481601 0.448029 32.71444848 0.49731445 36.58081055 C0.5449065 40.30910087 0.59724715 44.03729652 0.65294075 47.76547432 C0.67338778 49.19086933 0.69209691 50.61629032 0.70907402 52.04173088 C0.73306596 54.03170541 0.76370136 56.02159655 0.79467773 58.01147461 C0.81022202 59.14620712 0.8257663 60.28093964 0.84178162 61.45005798 C0.71350527 63.93415838 0.71350527 63.93415838 2 65 C4.21687994 65.15873955 6.43855298 65.25133837 8.66015625 65.31640625 C9.65685585 65.3475779 9.65685585 65.3475779 10.6736908 65.37937927 C12.80318543 65.44493658 14.93280668 65.50378785 17.0625 65.5625 C18.50326847 65.60567939 19.94402399 65.64929349 21.38476562 65.69335938 C24.9230404 65.80062393 28.46145869 65.90187371 32 66 C31.99476318 64.854104 31.98952637 63.70820801 31.98413086 62.52758789 C31.96608283 58.29159318 31.95456872 54.05560188 31.94506836 49.81958008 C31.94002769 47.98331125 31.93319523 46.14704646 31.92456055 44.31079102 C31.91248328 41.67723599 31.90676919 39.04373384 31.90234375 36.41015625 C31.89718246 35.58411392 31.89202118 34.75807159 31.88670349 33.90699768 C31.88650795 31.93763632 31.93795848 29.96838386 32 28 C33.88319268 26.11680732 37.11930137 26.86945715 39.625 26.8671875 C40.28709473 26.86623077 40.94918945 26.86527405 41.63134766 26.86428833 C43.03352961 26.86360674 44.4357147 26.86545958 45.83789062 26.86962891 C47.99095713 26.87497754 50.14381502 26.8696833 52.296875 26.86328125 C53.65625046 26.86394204 55.0156258 26.86522321 56.375 26.8671875 C58.24285156 26.86887939 58.24285156 26.86887939 60.1484375 26.87060547 C63 27 63 27 64 28 C64.08861992 30.8116338 64.11522355 33.59858255 64.09765625 36.41015625 C64.0962413 37.25219101 64.09482635 38.09422577 64.09336853 38.96177673 C64.08775263 41.66205335 64.07519748 44.36224828 64.0625 47.0625 C64.05748705 48.88867068 64.05292379 50.71484266 64.04882812 52.54101562 C64.03777804 57.02737542 64.02050279 61.51367384 64 66 C68.25435079 65.8820238 72.50845821 65.7577963 76.76245117 65.62768555 C78.2106424 65.5842837 79.65888654 65.54261256 81.10717773 65.50268555 C83.18489559 65.44510938 85.26234573 65.38137972 87.33984375 65.31640625 C88.59144287 65.27974854 89.84304199 65.24309082 91.13256836 65.20532227 C93.89630504 65.32196094 93.89630504 65.32196094 95 64 C95.12369325 62.0064857 95.1779639 60.0086353 95.20532227 58.01147461 C95.22526749 56.73022202 95.24521271 55.44896942 95.26576233 54.12889099 C95.28274797 52.72004316 95.29962673 51.31119405 95.31640625 49.90234375 C95.33696915 48.46887095 95.35796544 47.03540431 95.37937927 45.60194397 C95.43466859 41.8224688 95.48404745 38.0429383 95.53222656 34.2633667 C95.58239165 30.40925145 95.63810371 26.55521691 95.69335938 22.70117188 C95.80102479 15.13418286 95.90245097 7.5671269 96 0 C97.95424168 1.44336124 99.89723881 2.89686562 101.82315063 4.37799072 C103.89794512 5.9818085 103.89794512 5.9818085 105.84164429 7.0980835 C108.46917277 8.79481873 109.85989413 10.36355805 110.53253174 13.41906738 C110.76399853 16.55222858 110.7789129 19.62431491 110.7265625 22.765625 C110.72805801 24.48758087 110.72805801 24.48758087 110.72958374 26.24432373 C110.72490652 28.67190474 110.70547387 31.09949577 110.67236328 33.52685547 C110.62534062 37.22322469 110.63122175 40.91669049 110.64453125 44.61328125 C110.63337095 46.97657955 110.61914695 49.33986577 110.6015625 51.703125 C110.60429672 53.34888519 110.60429672 53.34888519 110.60708618 55.02789307 C110.47476648 62.27604902 109.53402564 68.93059193 104.62393188 74.58453369 C98.46957336 80.13958247 91.95026547 80.2782055 84.125 80.125 C83.24585938 80.11597656 82.36671875 80.10695313 81.4609375 80.09765625 C79.3071729 80.07424577 77.15354986 80.0383801 75 80 C75.01160156 80.85464844 75.02320313 81.70929688 75.03515625 82.58984375 C75.04417969 83.69457031 75.05320312 84.79929687 75.0625 85.9375 C75.07410156 87.03964844 75.08570313 88.14179688 75.09765625 89.27734375 C75 92 75 92 74 93 C71.32941149 93.14115161 68.67567762 93.04247107 66 93 C66.15662109 94.68416016 66.15662109 94.68416016 66.31640625 96.40234375 C67.08692468 108.4050109 67.08692468 108.4050109 63.9609375 112.9921875 C61.4375 115.3125 61.4375 115.3125 58.87109375 117.23828125 C58.25363281 117.81964844 57.63617188 118.40101563 57 119 C57.035124 121.62426448 57.67597711 122.64970499 59.4453125 124.5625 C60.56811351 125.52340877 61.69313114 126.48173332 62.8203125 127.4375 C64 129 64 129 63.8125 131.0703125 C63 133 63 133 60.875 134.875 C60.25625 135.57625 59.6375 136.2775 59 137 C59.14349347 140.19954954 59.14349347 140.19954954 60 143 C60.66 143 61.32 143 62 143 C64 146 64 146 63.8203125 148 C62.61552741 150.93738079 60.55984398 152.4193028 58.1796875 154.4375 C56.79302577 155.93330812 56.79302577 155.93330812 57.06640625 157.94921875 C58.26881517 160.59049358 59.87475508 161.91799779 62.0625 163.8125 C64.86513904 166.54937314 65.9022072 167.63490686 66.9375 171.5 C65.57590751 176.58327865 62.66222419 179.3449286 59 183 C58.401875 183.66902344 57.80375 184.33804688 57.1875 185.02734375 C54.36827934 188.10457344 52.69718856 189.79342561 48.625 191 C47.75875 191 46.8925 191 46 191 C43.86919302 188.86919302 44.8136822 184.02620172 44.79467773 181.07397461 C44.78477814 180.13748581 44.77487854 179.20099701 44.76467896 178.23612976 C44.73296247 175.12489392 44.70826659 172.01364278 44.68359375 168.90234375 C44.66303297 166.75142508 44.64203675 164.60051054 44.62062073 162.44960022 C44.5653095 156.77622811 44.51594028 151.10281899 44.46777344 145.42938232 C44.41762433 139.64494516 44.36190394 133.86056204 44.30664062 128.07617188 C44.19894842 116.71749402 44.09752818 105.35876935 44 94 C42.68 94 41.36 94 40 94 C39.67 123.37 39.34 152.74 39 183 C34.93725292 180.96862646 32.80058479 179.53728064 30 176 C29.53038299 173.06933005 29.36314324 170.73292665 29.43237305 167.81323242 C29.43164291 167.00295593 29.43091278 166.19267944 29.43016052 165.35784912 C29.4336335 162.68969899 29.47247897 160.02331243 29.51171875 157.35546875 C29.52104795 155.50174412 29.52816356 153.64800713 29.53315735 151.79426575 C29.55221876 146.92283907 29.60131215 142.05216159 29.65667725 137.18103027 C29.70788823 132.20737848 29.73067534 127.23360525 29.75585938 122.25976562 C29.80943173 112.50618182 29.89473417 102.75315329 30 93 C28.700625 93.020625 27.40125 93.04125 26.0625 93.0625 C24.70834367 93.08399454 23.35243917 93.07148199 22 93 C21 92 21 92 20.90234375 89.27734375 C20.91394531 88.17519531 20.92554688 87.07304687 20.9375 85.9375 C20.94652344 84.83277344 20.95554688 83.72804688 20.96484375 82.58984375 C20.97644531 81.73519531 20.98804688 80.88054687 21 80 C20.15405273 80.0314209 20.15405273 80.0314209 19.29101562 80.06347656 C16.69419751 80.14748501 14.09766638 80.19892229 11.5 80.25 C10.613125 80.28351563 9.72625 80.31703125 8.8125 80.3515625 C2.66160509 80.44201684 -1.87153298 79.50521876 -7 76 C-9.3125 73.625 -9.3125 73.625 -11 71 C-11.51433594 70.20360107 -12.02867187 69.40720215 -12.55859375 68.58666992 C-14.63533542 63.41908662 -14.62468366 58.51509611 -14.75 52.98828125 C-14.77658691 51.82427292 -14.80317383 50.66026459 -14.83056641 49.46098328 C-14.87635443 47.00091648 -14.91276195 44.54065958 -14.94042969 42.08032227 C-14.98001151 39.57677213 -15.0481917 37.07350435 -15.14550781 34.5715332 C-15.99612261 12.63348309 -15.99612261 12.63348309 -11.0703125 6.84130859 C-3.78508931 0 -3.78508931 0 0 0 Z " fill="#F6F9FC" transform="translate(142,129)"/>
<path d="M0 0 C3.8604298 1.6385997 6.80439458 4.21865446 9.9375 6.9375 C11.09236916 7.92717525 12.24731952 8.91675574 13.40234375 9.90625 C14.28962158 10.67001953 14.28962158 10.67001953 15.19482422 11.44921875 C18.11746359 13.95998495 21.05876799 16.44856903 24 18.9375 C24.527146 19.38536865 25.05429199 19.8332373 25.59741211 20.29467773 C28.69291097 22.9191977 31.82906557 25.46325245 35 28 C35.33 23.38 35.66 18.76 36 14 C41.94 14 47.88 14 54 14 C54 24.23 54 34.46 54 45 C55.32 45.66 56.64 46.32 58 47 C59.1262026 47.86859516 60.22130169 48.77872653 61.28515625 49.72265625 C61.89351318 50.25737549 62.50187012 50.79209473 63.12866211 51.34301758 C63.76682861 51.91044678 64.40499512 52.47787598 65.0625 53.0625 C71.26841182 58.51631821 77.56216504 63.82028663 84 69 C82.32603695 73.591665 80.20616974 76.37196582 77 80 C73.52364612 78.49199261 71.13370098 76.45398105 68.375 73.875 C65.08155301 70.85520677 61.76104085 67.95114107 58.25 65.1875 C54.0950553 61.91311658 50.06664868 58.51765355 46.0625 55.0625 C41.02649223 50.71866419 35.93129044 46.46393293 30.76953125 42.26953125 C26.0352295 38.38994124 21.37866216 34.41878368 16.71435547 30.45556641 C13.70887567 27.90377624 10.69783505 25.35855865 7.6875 22.8125 C6.58721597 21.88153832 5.48695329 20.95055142 4.38671875 20.01953125 C3.59910156 19.35308594 2.81148438 18.68664062 2 18 C-0.78823237 19.28923981 -2.98996602 20.68619531 -5.28515625 22.72265625 C-5.89246582 23.25648926 -6.49977539 23.79032227 -7.12548828 24.34033203 C-7.76470215 24.90864746 -8.40391602 25.47696289 -9.0625 26.0625 C-10.41432914 27.2498778 -11.76719963 28.43607105 -13.12109375 29.62109375 C-14.11471924 30.49096924 -14.11471924 30.49096924 -15.12841797 31.37841797 C-18.44185646 34.24925784 -21.85163327 36.9985041 -25.2578125 39.7578125 C-28.37000041 42.30253595 -31.43729874 44.89614381 -34.5 47.5 C-38.44646124 50.85452096 -42.41642235 54.17221962 -46.4375 57.4375 C-51.91969148 61.90030887 -57.28452483 66.49298931 -62.640625 71.10546875 C-63.18783203 71.57259277 -63.73503906 72.0397168 -64.29882812 72.52099609 C-65.5076409 73.57194153 -66.69728449 74.6451154 -67.87304688 75.73291016 C-68.48728516 76.29155762 -69.10152344 76.85020508 -69.734375 77.42578125 C-70.28834961 77.94180908 -70.84232422 78.45783691 -71.41308594 78.98950195 C-72.1986084 79.48969849 -72.1986084 79.48969849 -73 80 C-76.48872415 78.83709195 -77.09976864 77.86032391 -79.1875 74.9375 C-79.98220703 73.83728516 -79.98220703 73.83728516 -80.79296875 72.71484375 C-81.19128906 72.14894531 -81.58960937 71.58304687 -82 71 C-80.49775154 67.26107049 -78.39834702 65.45906395 -75.25 63 C-70.75113175 59.41974883 -66.34921732 55.76050288 -62 52 C-56.98487956 47.67736945 -51.90821552 43.44518245 -46.76953125 39.26953125 C-41.45558334 34.91494206 -36.23473234 30.44921565 -31 26 C-23.87008814 19.93999285 -16.71428329 13.92343193 -9.45703125 8.015625 C-6.26033022 5.39321207 -3.12446878 2.70787294 0 0 Z " fill="#F9FBFC" transform="translate(189,60)"/>
<path d="M0 0 C3.3 0 6.6 0 10 0 C10 3.63 10 7.26 10 11 C6.7 11 3.4 11 0 11 C0 7.37 0 3.74 0 0 Z " fill="#E7EEF8" transform="translate(192,126)"/>
<path d="M0 0 C3.3 0 6.6 0 10 0 C10 3.63 10 7.26 10 11 C6.7 11 3.4 11 0 11 C0 7.37 0 3.74 0 0 Z " fill="#E5ECF8" transform="translate(178,126)"/>
<path d="M0 0 C0.66 0 1.32 0 2 0 C2 3.96 2 7.92 2 12 C5.63 12 9.26 12 13 12 C12.67 12.66 12.34 13.32 12 14 C9.93359375 14.4140625 9.93359375 14.4140625 7.4375 14.625 C6.19806641 14.73714844 6.19806641 14.73714844 4.93359375 14.8515625 C3.97646484 14.92503906 3.97646484 14.92503906 3 15 C2.95101562 15.71027344 2.90203125 16.42054687 2.8515625 17.15234375 C2.77679688 18.07144531 2.70203125 18.99054688 2.625 19.9375 C2.55539063 20.85402344 2.48578125 21.77054688 2.4140625 22.71484375 C2.27742187 23.46894531 2.14078125 24.22304687 2 25 C1.34 25.33 0.68 25.66 0 26 C0 22.37 0 18.74 0 15 C-3.63 15 -7.26 15 -11 15 C-11 14.01 -11 13.02 -11 12 C-7.37 12 -3.74 12 0 12 C0 8.04 0 4.08 0 0 Z " fill="#0D4AC4" transform="translate(189,111)"/>
<path d="M0 0 C5.36170213 0.59574468 5.36170213 0.59574468 7.875 2.1875 C9.49664405 4.80014875 9.20031953 6.99520702 9 10 C6.03 10 3.06 10 0 10 C0 6.7 0 3.4 0 0 Z " fill="#F6F9FC" transform="translate(192,112)"/>
<path d="M0 0 C0 3.3 0 6.6 0 10 C-2.97 10 -5.94 10 -9 10 C-8.51309271 3.54847841 -8.51309271 3.54847841 -6.1875 1.0625 C-4 0 -4 0 0 0 Z " fill="#F8FAFC" transform="translate(188,112)"/>
<path d="M0 0 C1.32 0.66 2.64 1.32 4 2 C3.41734375 2.09152344 2.8346875 2.18304688 2.234375 2.27734375 C-0.53183847 3.17201069 -1.76373964 4.46164769 -3.75 6.5625 C-4.36359375 7.20316406 -4.9771875 7.84382813 -5.609375 8.50390625 C-6.06828125 8.99761719 -6.5271875 9.49132812 -7 10 C-7.66 9.34 -8.32 8.68 -9 8 C-6.03 5.36 -3.06 2.72 0 0 Z " fill="#2E5FBA" transform="translate(189,77)"/>
<path d="M0 0 C1.32 0 2.64 0 4 0 C4 1.98 4 3.96 4 6 C2.68 6 1.36 6 0 6 C0 4.02 0 2.04 0 0 Z " fill="#1F55BD" transform="translate(197,175)"/>
<path d="M0 0 C0 3 0 3 -1.3125 4.38671875 C-2.875 5.59114583 -4.4375 6.79557292 -6 8 C-6 5 -6 5 -4.6875 3.61328125 C-3.125 2.40885417 -1.5625 1.20442708 0 0 Z " fill="#285ABB" transform="translate(175,89)"/>
</svg>
